<?xml version="1.0" standalone="yes"?>

<svg version="1.1" viewBox="0.0 0.0 1189.9081364829397 211.79527559055117" fill="none" stroke="none" stroke-linecap="square" stroke-miterlimit="10" xmlns="http://www.w3.org/2000/svg" xmlns:xlink="http://www.w3.org/1999/xlink"><clipPath id="p.0"><path d="m0 0l1189.9081 0l0 211.79527l-1189.9081 0l0 -211.79527z" clip-rule="nonzero"></path></clipPath><g clip-path="url(#p.0)"><path fill="#000000" fill-opacity="0.0" d="m0 0l1189.9081 0l0 211.79527l-1189.9081 0z" fill-rule="nonzero"></path><path fill="#d9d9d9" d="m12.401575 66.720474l65.13386 0l0 65.16536l-65.13386 0z" fill-rule="nonzero"></path><path stroke="#000000" stroke-width="1.0" stroke-linejoin="round" stroke-linecap="butt" d="m12.401575 66.720474l65.13386 0l0 65.16536l-65.13386 0z" fill-rule="nonzero"></path><path fill="#000000" fill-opacity="0.0" d="m44.968502 165.6811l0 -33.795273" fill-rule="nonzero"></path><path stroke="#000000" stroke-width="1.0" stroke-linejoin="round" stroke-linecap="butt" d="m44.968502 165.6811l0 -27.795273" fill-rule="evenodd"></path><path fill="#000000" stroke="#000000" stroke-width="1.0" stroke-linecap="butt" d="m46.620235 137.88583l-1.6517334 -4.538101l-1.6517296 4.538101z" fill-rule="evenodd"></path><path fill="#000000" fill-opacity="0.0" d="m77.53543 99.30315l34.3937 0" fill-rule="nonzero"></path><path stroke="#000000" stroke-width="3.0" stroke-linejoin="round" stroke-linecap="butt" d="m77.53543 99.30315l16.3937 0" fill-rule="evenodd"></path><path fill="#000000" stroke="#000000" stroke-width="3.0" stroke-linecap="butt" d="m93.92914 104.25835l13.614288 -4.9552l-13.614288 -4.9551926z" fill-rule="evenodd"></path><path fill="#000000" fill-opacity="0.0" d="m14.591526 159.1811l60.75591 0l0 29.669281l-60.75591 0z" fill-rule="nonzero"></path><path fill="#000000" d="m38.731197 191.2211l0 -17.1875l6.4375 0q1.96875 0 3.15625 0.53125q1.1875 0.515625 1.859375 1.609375q0.6875 1.078125 0.6875 2.265625q0 1.09375 -0.609375 2.078125q-0.59375 0.96875 -1.796875 1.5625q1.5625 0.453125 2.390625 1.5625q0.84375 1.09375 0.84375 2.59375q0 1.203125 -0.515625 2.25q-0.5 1.03125 -1.25 1.59375q-0.75 0.5625 -1.890625 0.859375q-1.125 0.28125 -2.765625 0.28125l-6.546875 0zm2.265625 -9.96875l3.71875 0q1.515625 0 2.171875 -0.1875q0.859375 -0.265625 1.296875 -0.859375q0.4375 -0.59375 0.4375 -1.5q0 -0.859375 -0.40625 -1.5q-0.40625 -0.65625 -1.171875 -0.890625q-0.765625 -0.25 -2.609375 -0.25l-3.4375 0l0 5.1875zm0 7.9375l4.28125 0q1.09375 0 1.546875 -0.078125q0.78125 -0.140625 1.3125 -0.46875q0.53125 -0.328125 0.859375 -0.953125q0.34375 -0.625 0.34375 -1.453125q0 -0.953125 -0.5 -1.65625q-0.484375 -0.71875 -1.359375 -1.0q-0.875 -0.296875 -2.515625 -0.296875l-3.96875 0l0 5.90625z" fill-rule="nonzero"></path><path fill="#d9d9d9" d="m211.45761 66.720474l65.13385 0l0 65.16536l-65.13385 0z" fill-rule="nonzero"></path><path stroke="#000000" stroke-width="1.0" stroke-linejoin="round" stroke-linecap="butt" d="m211.45761 66.720474l65.13385 0l0 65.16536l-65.13385 0z" fill-rule="nonzero"></path><path fill="#000000" fill-opacity="0.0" d="m244.02454 165.6811l0 -33.795273" fill-rule="nonzero"></path><path stroke="#000000" stroke-width="1.0" stroke-linejoin="round" stroke-linecap="butt" d="m244.02455 165.6811l0 -27.795273" fill-rule="evenodd"></path><path fill="#000000" stroke="#000000" stroke-width="1.0" stroke-linecap="butt" d="m245.67628 137.88583l-1.6517334 -4.538101l-1.6517334 4.538101z" fill-rule="evenodd"></path><path fill="#000000" fill-opacity="0.0" d="m276.59146 99.30315l34.393707 0" fill-rule="nonzero"></path><path stroke="#000000" stroke-width="3.0" stroke-linejoin="round" stroke-linecap="butt" d="m276.59146 99.30315l16.393707 0" fill-rule="evenodd"></path><path fill="#000000" stroke="#000000" stroke-width="3.0" stroke-linecap="butt" d="m292.98517 104.25835l13.614288 -4.9552l-13.614288 -4.9551926z" fill-rule="evenodd"></path><path fill="#000000" fill-opacity="0.0" d="m220.23683 159.1811l47.59056 0l0 29.669281l-47.59056 0z" fill-rule="nonzero"></path><path fill="#000000" d="m238.15517 185.00235q0 -3.46875 1.921875 -5.125q1.609375 -1.390625 3.921875 -1.390625q2.5625 0 4.1875 1.6875q1.625 1.6875 1.625 4.640625q0 2.40625 -0.71875 3.78125q-0.71875 1.375 -2.09375 2.140625q-1.375 0.765625 -3.0 0.765625q-2.625 0 -4.234375 -1.671875q-1.609375 -1.6875 -1.609375 -4.828125zm2.171875 0q0 2.390625 1.03125 3.578125q1.046875 1.1875 2.640625 1.1875q1.5625 0 2.609375 -1.1875q1.046875 -1.203125 1.046875 -3.65625q0 -2.3125 -1.0625 -3.5q-1.046875 -1.1875 -2.59375 -1.1875q-1.59375 0 -2.640625 1.1875q-1.03125 1.1875 -1.03125 3.578125z" fill-rule="nonzero"></path><path fill="#d9d9d9" d="m310.9992 66.720474l65.13385 0l0 65.16536l-65.13385 0z" fill-rule="nonzero"></path><path stroke="#000000" stroke-width="1.0" stroke-linejoin="round" stroke-linecap="butt" d="m310.9992 66.720474l65.13385 0l0 65.16536l-65.13385 0z" fill-rule="nonzero"></path><path fill="#000000" fill-opacity="0.0" d="m343.56613 165.6811l0 -33.795273" fill-rule="nonzero"></path><path stroke="#000000" stroke-width="1.0" stroke-linejoin="round" stroke-linecap="butt" d="m343.56613 165.6811l0 -27.795273" fill-rule="evenodd"></path><path fill="#000000" stroke="#000000" stroke-width="1.0" stroke-linecap="butt" d="m345.21786 137.88583l-1.6517334 -4.538101l-1.6517334 4.538101z" fill-rule="evenodd"></path><path fill="#000000" fill-opacity="0.0" d="m376.13306 99.30315l34.393707 0" fill-rule="nonzero"></path><path stroke="#000000" stroke-width="3.0" stroke-linejoin="round" stroke-linecap="butt" d="m376.1331 99.30315l16.393707 0" fill-rule="evenodd"></path><path fill="#000000" stroke="#000000" stroke-width="3.0" stroke-linecap="butt" d="m392.5268 104.25835l13.614288 -4.9552l-13.614288 -4.9551926z" fill-rule="evenodd"></path><path fill="#000000" fill-opacity="0.0" d="m315.896 159.1811l55.338562 0l0 29.669281l-55.338562 0z" fill-rule="nonzero"></path><path fill="#000000" d="m338.77426 191.2211l-3.796875 -12.453125l2.171875 0l1.984375 7.1875l0.734375 2.671875q0.046875 -0.203125 0.640625 -2.5625l1.984375 -7.296875l2.171875 0l1.859375 7.21875l0.625 2.390625l0.71875 -2.40625l2.125 -7.203125l2.046875 0l-3.890625 12.453125l-2.1875 0l-1.984375 -7.453125l-0.46875 -2.125l-2.53125 9.578125l-2.203125 0z" fill-rule="nonzero"></path><path fill="#d9d9d9" d="m410.5408 66.720474l65.13385 0l0 65.16536l-65.13385 0z" fill-rule="nonzero"></path><path stroke="#000000" stroke-width="1.0" stroke-linejoin="round" stroke-linecap="butt" d="m410.5408 66.720474l65.13385 0l0 65.16536l-65.13385 0z" fill-rule="nonzero"></path><path fill="#000000" fill-opacity="0.0" d="m443.10773 165.6811l0 -33.795273" fill-rule="nonzero"></path><path stroke="#000000" stroke-width="1.0" stroke-linejoin="round" stroke-linecap="butt" d="m443.10773 165.6811l0 -27.795273" fill-rule="evenodd"></path><path fill="#000000" stroke="#000000" stroke-width="1.0" stroke-linecap="butt" d="m444.75946 137.88583l-1.6517334 -4.538101l-1.6517334 4.538101z" fill-rule="evenodd"></path><path fill="#000000" fill-opacity="0.0" d="m475.67465 99.30315l34.393707 0" fill-rule="nonzero"></path><path stroke="#000000" stroke-width="3.0" stroke-linejoin="round" stroke-linecap="butt" d="m475.67465 99.30315l16.393707 0" fill-rule="evenodd"></path><path fill="#000000" stroke="#000000" stroke-width="3.0" stroke-linecap="butt" d="m492.06836 104.25835l13.614288 -4.9552l-13.614288 -4.9551926z" fill-rule="evenodd"></path><path fill="#000000" fill-opacity="0.0" d="m417.66003 159.1811l50.897644 0l0 29.669281l-50.897644 0z" fill-rule="nonzero"></path><path fill="#000000" d="m446.1694 191.2211l0 -1.828125q-1.453125 2.109375 -3.9375 2.109375q-1.109375 0 -2.0625 -0.421875q-0.953125 -0.421875 -1.421875 -1.0625q-0.453125 -0.640625 -0.640625 -1.5625q-0.140625 -0.625 -0.140625 -1.96875l0 -7.71875l2.109375 0l0 6.90625q0 1.65625 0.140625 2.234375q0.1875 0.828125 0.828125 1.3125q0.65625 0.46875 1.609375 0.46875q0.9375 0 1.765625 -0.484375q0.84375 -0.5 1.1875 -1.328125q0.34375 -0.84375 0.34375 -2.4375l0 -6.671875l2.109375 0l0 12.453125l-1.890625 0z" fill-rule="nonzero"></path><path fill="#d9d9d9" d="m510.0824 66.720474l65.13385 0l0 65.16536l-65.13385 0z" fill-rule="nonzero"></path><path stroke="#000000" stroke-width="1.0" stroke-linejoin="round" stroke-linecap="butt" d="m510.0824 66.720474l65.13385 0l0 65.16536l-65.13385 0z" fill-rule="nonzero"></path><path fill="#000000" fill-opacity="0.0" d="m542.6493 165.6811l0 -33.795273" fill-rule="nonzero"></path><path stroke="#000000" stroke-width="1.0" stroke-linejoin="round" stroke-linecap="butt" d="m542.6493 165.6811l0 -27.795273" fill-rule="evenodd"></path><path fill="#000000" stroke="#000000" stroke-width="1.0" stroke-linecap="butt" d="m544.301 137.88583l-1.6517334 -4.538101l-1.6517334 4.538101z" fill-rule="evenodd"></path><path fill="#000000" fill-opacity="0.0" d="m575.21625 99.30315l34.393677 0" fill-rule="nonzero"></path><path stroke="#000000" stroke-width="3.0" stroke-linejoin="round" stroke-linecap="butt" d="m575.21625 99.30315l16.393677 0" fill-rule="evenodd"></path><path fill="#000000" stroke="#000000" stroke-width="3.0" stroke-linecap="butt" d="m591.6099 104.25835l13.614319 -4.9552l-13.614319 -4.9551926z" fill-rule="evenodd"></path><path fill="#000000" fill-opacity="0.0" d="m530.50604 159.18146l24.314941 0l0 29.669296l-24.314941 0z" fill-rule="nonzero"></path><path fill="#000000" d="m541.0373 191.22147l0 -17.1875l2.109375 0l0 17.1875l-2.109375 0z" fill-rule="nonzero"></path><path fill="#d9d9d9" d="m609.62396 66.720474l65.13391 0l0 65.16536l-65.13391 0z" fill-rule="nonzero"></path><path stroke="#000000" stroke-width="1.0" stroke-linejoin="round" stroke-linecap="butt" d="m609.62396 66.720474l65.13391 0l0 65.16536l-65.13391 0z" fill-rule="nonzero"></path><path fill="#000000" fill-opacity="0.0" d="m642.1909 165.6811l0 -33.795273" fill-rule="nonzero"></path><path stroke="#000000" stroke-width="1.0" stroke-linejoin="round" stroke-linecap="butt" d="m642.1909 165.6811l0 -27.795273" fill-rule="evenodd"></path><path fill="#000000" stroke="#000000" stroke-width="1.0" stroke-linecap="butt" d="m643.84265 137.88583l-1.6517334 -4.538101l-1.6517334 4.538101z" fill-rule="evenodd"></path><path fill="#000000" fill-opacity="0.0" d="m674.7579 99.30315l94.04724 -81.70078" fill-rule="nonzero"></path><path stroke="#000000" stroke-width="1.0" stroke-linejoin="round" stroke-linecap="butt" d="m674.7578 99.30315l89.51776 -77.76589" fill-rule="evenodd"></path><path fill="#000000" stroke="#000000" stroke-width="1.0" stroke-linecap="butt" d="m765.3588 22.784184l2.3426514 -4.2230835l-4.509094 1.7292271z" fill-rule="evenodd"></path><path fill="#000000" fill-opacity="0.0" d="m630.04767 159.18146l24.314941 0l0 29.669296l-24.314941 0z" fill-rule="nonzero"></path><path fill="#000000" d="m641.1414 191.22147l0 -10.8125l-1.875 0l0 -1.640625l1.875 0l0 -1.3125q0 -1.265625 0.21875 -1.875q0.296875 -0.8125 1.0625 -1.3125q0.78125 -0.515625 2.15625 -0.515625q0.890625 0 1.96875 0.203125l-0.3125 1.84375q-0.65625 -0.125 -1.25 -0.125q-0.953125 0 -1.359375 0.421875q-0.390625 0.40625 -0.390625 1.53125l0 1.140625l2.421875 0l0 1.640625l-2.421875 0l0 10.8125l-2.09375 0z" fill-rule="nonzero"></path><path fill="#000000" fill-opacity="0.0" d="m1039.6693 76.12861l261.7323 0l0 40.850395l-261.7323 0z" fill-rule="nonzero"></path><path fill="#000000" d="m1056.6381 85.68755l1.59375 0.84375l-5.71875 9.9375l5.71875 9.9375l-1.59375 0.84375l-6.1875 -10.78125l6.1875 -10.78125z" fill-rule="nonzero"></path><path fill="#000000" d="m1074.7787 99.06255l2.28125 0.578125q-0.71875 2.796875 -2.578125 4.28125q-1.859375 1.46875 -4.546875 1.46875q-2.765625 0 -4.515625 -1.125q-1.734375 -1.140625 -2.640625 -3.28125q-0.90625 -2.15625 -0.90625 -4.609375q0 -2.6875 1.015625 -4.6875q1.03125 -2.0 2.921875 -3.03125q1.890625 -1.03125 4.171875 -1.03125q2.578125 0 4.328125 1.3125q1.765625 1.3125 2.453125 3.6875l-2.234375 0.53125q-0.609375 -1.875 -1.75 -2.734375q-1.125 -0.859375 -2.84375 -0.859375q-1.984375 0 -3.3125 0.953125q-1.328125 0.953125 -1.875 2.546875q-0.53125 1.59375 -0.53125 3.296875q0 2.1875 0.625 3.828125q0.640625 1.640625 1.984375 2.453125q1.359375 0.796875 2.921875 0.796875q1.921875 0 3.234375 -1.09375q1.328125 -1.109375 1.796875 -3.28125zm4.8007812 6.03125l0 -17.1875l2.109375 0l0 6.171875q1.484375 -1.71875 3.734375 -1.71875q1.375 0 2.390625 0.546875q1.03125 0.546875 1.46875 1.515625q0.4375 0.953125 0.4375 2.78125l0 7.890625l-2.109375 0l0 -7.890625q0 -1.578125 -0.6875 -2.296875q-0.6875 -0.71875 -1.9375 -0.71875q-0.9375 0 -1.765625 0.484375q-0.828125 0.484375 -1.1875 1.3125q-0.34375 0.828125 -0.34375 2.296875l0 6.8125l-2.109375 0zm13.363281 -14.75l0 -2.4375l2.109375 0l0 2.4375l-2.109375 0zm0 14.75l0 -12.453125l2.109375 0l0 12.453125l-2.109375 0zm5.2695312 0l0 -17.1875l2.109375 0l0 17.1875l-2.109375 0zm5.3789062 4.765625l0 -17.21875l1.921875 0l0 1.625q0.6875 -0.953125 1.53125 -1.421875q0.859375 -0.484375 2.078125 -0.484375q1.59375 0 2.8125 0.828125q1.21875 0.8125 1.84375 2.3125q0.625 1.5 0.625 3.28125q0 1.90625 -0.6875 3.4375q-0.6875 1.53125 -2.0 2.34375q-1.296875 0.8125 -2.734375 0.8125q-1.0625 0 -1.90625 -0.4375q-0.828125 -0.453125 -1.375 -1.140625l0 6.0625l-2.109375 0zm1.921875 -10.921875q0 2.40625 0.96875 3.5625q0.96875 1.140625 2.359375 1.140625q1.40625 0 2.40625 -1.1875q1.0 -1.1875 1.0 -3.6875q0 -2.375 -0.984375 -3.5625q-0.96875 -1.1875 -2.328125 -1.1875q-1.359375 0 -2.390625 1.265625q-1.03125 1.25 -1.03125 3.65625zm19.957031 2.140625l2.171875 0.28125q-0.515625 1.90625 -1.90625 2.96875q-1.390625 1.046875 -3.5625 1.046875q-2.734375 0 -4.34375 -1.671875q-1.59375 -1.6875 -1.59375 -4.734375q0 -3.140625 1.609375 -4.875q1.625 -1.734375 4.203125 -1.734375q2.5 0 4.078125 1.703125q1.59375 1.703125 1.59375 4.78125q0 0.1875 -0.015625 0.5625l-9.28125 0q0.109375 2.046875 1.15625 3.140625q1.046875 1.09375 2.609375 1.09375q1.15625 0 1.96875 -0.609375q0.828125 -0.609375 1.3125 -1.953125zm-6.9375 -3.40625l6.953125 0q-0.140625 -1.5625 -0.796875 -2.359375q-1.0 -1.21875 -2.609375 -1.21875q-1.453125 0 -2.453125 0.984375q-0.984375 0.96875 -1.09375 2.59375zm11.738281 7.421875l0 -12.453125l1.890625 0l0 1.890625q0.734375 -1.328125 1.34375 -1.75q0.625 -0.421875 1.359375 -0.421875q1.0625 0 2.171875 0.6875l-0.734375 1.953125q-0.765625 -0.453125 -1.546875 -0.453125q-0.6875 0 -1.25 0.421875q-0.546875 0.40625 -0.78125 1.140625q-0.34375 1.125 -0.34375 2.46875l0 6.515625l-2.109375 0zm8.0234375 -14.75l0 -2.4375l2.109375 0l0 2.4375l-2.109375 0zm0 14.75l0 -12.453125l2.109375 0l0 12.453125l-2.109375 0zm13.441406 -4.5625l2.078125 0.265625q-0.34375 2.15625 -1.75 3.375q-1.390625 1.203125 -3.4375 1.203125q-2.546875 0 -4.109375 -1.671875q-1.546875 -1.671875 -1.546875 -4.78125q0 -2.015625 0.671875 -3.53125q0.671875 -1.515625 2.03125 -2.265625q1.359375 -0.765625 2.96875 -0.765625q2.03125 0 3.3125 1.03125q1.296875 1.03125 1.65625 2.90625l-2.046875 0.328125q-0.296875 -1.265625 -1.046875 -1.890625q-0.734375 -0.640625 -1.796875 -0.640625q-1.59375 0 -2.59375 1.15625q-0.984375 1.140625 -0.984375 3.609375q0 2.5 0.953125 3.640625q0.96875 1.140625 2.515625 1.140625q1.234375 0 2.0625 -0.765625q0.84375 -0.765625 1.0625 -2.34375z" fill-rule="nonzero"></path><path fill="#000000" d="m1157.5013 107.25005l-1.59375 -0.84375l5.71875 -9.9375l-5.71875 -9.9375l1.59375 -0.84375l6.1875 10.78125l-6.1875 10.78125z" fill-rule="nonzero"></path><path fill="#d9d9d9" d="m111.92913 66.720474l65.13386 0l0 65.16536l-65.13386 0z" fill-rule="nonzero"></path><path stroke="#000000" stroke-width="1.0" stroke-linejoin="round" stroke-linecap="butt" d="m111.92913 66.720474l65.13386 0l0 65.16536l-65.13386 0z" fill-rule="nonzero"></path><path fill="#000000" fill-opacity="0.0" d="m144.49606 165.6811l0 -33.795273" fill-rule="nonzero"></path><path stroke="#000000" stroke-width="1.0" stroke-linejoin="round" stroke-linecap="butt" d="m144.49606 165.6811l0 -27.795273" fill-rule="evenodd"></path><path fill="#000000" stroke="#000000" stroke-width="1.0" stroke-linecap="butt" d="m146.1478 137.88583l-1.6517334 -4.538101l-1.6517334 4.538101z" fill-rule="evenodd"></path><path fill="#000000" fill-opacity="0.0" d="m177.06299 99.30315l34.393707 0" fill-rule="nonzero"></path><path stroke="#000000" stroke-width="3.0" stroke-linejoin="round" stroke-linecap="butt" d="m177.06299 99.30315l16.393707 0" fill-rule="evenodd"></path><path fill="#000000" stroke="#000000" stroke-width="3.0" stroke-linecap="butt" d="m193.4567 104.25835l13.614288 -4.9552l-13.614288 -4.9551926z" fill-rule="evenodd"></path><path fill="#000000" fill-opacity="0.0" d="m119.04606 159.1811l50.897636 0l0 29.669281l-50.897636 0z" fill-rule="nonzero"></path><path fill="#000000" d="m147.93042 187.20547l2.171875 0.28125q-0.515625 1.90625 -1.90625 2.96875q-1.390625 1.046875 -3.5625 1.046875q-2.734375 0 -4.34375 -1.671875q-1.59375 -1.6875 -1.59375 -4.734375q0 -3.140625 1.609375 -4.875q1.625 -1.734375 4.203125 -1.734375q2.5 0 4.078125 1.703125q1.59375 1.703125 1.59375 4.78125q0 0.1875 -0.015625 0.5625l-9.28125 0q0.109375 2.046875 1.15625 3.140625q1.046875 1.09375 2.609375 1.09375q1.15625 0 1.96875 -0.609375q0.828125 -0.609375 1.3125 -1.953125zm-6.9375 -3.40625l6.953125 0q-0.140625 -1.5625 -0.796875 -2.359375q-1.0 -1.21875 -2.609375 -1.21875q-1.453125 0 -2.453125 0.984375q-0.984375 0.96875 -1.09375 2.59375z" fill-rule="nonzero"></path><path fill="#cccccc" d="m768.79266 99.30446l0 0c0 -6.714386 5.443054 -12.157478 12.157471 -12.157478l0 0c3.2243652 0 6.3166504 1.2808762 8.596619 3.5608444c2.2799683 2.2799683 3.560852 5.3722763 3.560852 8.596634l0 0c0 6.7143936 -5.443054 12.157486 -12.157471 12.157486l0 0c-6.7144165 0 -12.157471 -5.4430923 -12.157471 -12.157486z" fill-rule="nonzero"></path><path stroke="#000000" stroke-width="1.0" stroke-linejoin="round" stroke-linecap="butt" d="m768.79266 99.30446l0 0c0 -6.714386 5.443054 -12.157478 12.157471 -12.157478l0 0c3.2243652 0 6.3166504 1.2808762 8.596619 3.5608444c2.2799683 2.2799683 3.560852 5.3722763 3.560852 8.596634l0 0c0 6.7143936 -5.443054 12.157486 -12.157471 12.157486l0 0c-6.7144165 0 -12.157471 -5.4430923 -12.157471 -12.157486z" fill-rule="nonzero"></path><path fill="#cccccc" d="m768.79266 140.15486l0 0c0 -6.7144012 5.443054 -12.157486 12.157471 -12.157486l0 0c3.2243652 0 6.3166504 1.2808685 8.596619 3.5608368c2.2799683 2.2799835 3.560852 5.372284 3.560852 8.596649l0 0c0 6.714386 -5.443054 12.157471 -12.157471 12.157471l0 0c-6.7144165 0 -12.157471 -5.4430847 -12.157471 -12.157471z" fill-rule="nonzero"></path><path stroke="#000000" stroke-width="1.0" stroke-linejoin="round" stroke-linecap="butt" d="m768.79266 140.15486l0 0c0 -6.7144012 5.443054 -12.157486 12.157471 -12.157486l0 0c3.2243652 0 6.3166504 1.2808685 8.596619 3.5608368c2.2799683 2.2799835 3.560852 5.372284 3.560852 8.596649l0 0c0 6.714386 -5.443054 12.157471 -12.157471 12.157471l0 0c-6.7144165 0 -12.157471 -5.4430847 -12.157471 -12.157471z" fill-rule="nonzero"></path><path fill="#cccccc" d="m768.79266 17.603674l0 0c0 -6.7143908 5.443054 -12.15748 12.157471 -12.15748l0 0c3.2243652 0 6.3166504 1.2808738 8.596619 3.560844c2.2799683 2.2799692 3.560852 5.3722725 3.560852 8.596636l0 0c0 6.7143917 -5.443054 12.15748 -12.157471 12.15748l0 0c-6.7144165 0 -12.157471 -5.4430885 -12.157471 -12.15748z" fill-rule="nonzero"></path><path stroke="#000000" stroke-width="1.0" stroke-linejoin="round" stroke-linecap="butt" d="m768.79266 17.603674l0 0c0 -6.7143908 5.443054 -12.15748 12.157471 -12.15748l0 0c3.2243652 0 6.3166504 1.2808738 8.596619 3.560844c2.2799683 2.2799692 3.560852 5.3722725 3.560852 8.596636l0 0c0 6.7143917 -5.443054 12.15748 -12.157471 12.15748l0 0c-6.7144165 0 -12.157471 -5.4430885 -12.157471 -12.15748z" fill-rule="nonzero"></path><path fill="#cccccc" d="m768.79266 58.454067l0 0c0 -6.71439 5.443054 -12.157478 12.157471 -12.157478l0 0c3.2243652 0 6.3166504 1.2808723 8.596619 3.5608444c2.2799683 2.2799683 3.560852 5.3722725 3.560852 8.596634l0 0c0 6.71439 -5.443054 12.157482 -12.157471 12.157482l0 0c-6.7144165 0 -12.157471 -5.4430923 -12.157471 -12.157482z" fill-rule="nonzero"></path><path stroke="#000000" stroke-width="1.0" stroke-linejoin="round" stroke-linecap="butt" d="m768.79266 58.454067l0 0c0 -6.71439 5.443054 -12.157478 12.157471 -12.157478l0 0c3.2243652 0 6.3166504 1.2808723 8.596619 3.5608444c2.2799683 2.2799683 3.560852 5.3722725 3.560852 8.596634l0 0c0 6.71439 -5.443054 12.157482 -12.157471 12.157482l0 0c-6.7144165 0 -12.157471 -5.4430923 -12.157471 -12.157482z" fill-rule="nonzero"></path><path fill="#cccccc" d="m768.79266 181.00525l0 0c0 -6.714386 5.443054 -12.157486 12.157471 -12.157486l0 0c3.2243652 0 6.3166504 1.2808838 8.596619 3.560852c2.2799683 2.2799683 3.560852 5.3722687 3.560852 8.596634l0 0c0 6.714386 -5.443054 12.157486 -12.157471 12.157486l0 0c-6.7144165 0 -12.157471 -5.4431 -12.157471 -12.157486z" fill-rule="nonzero"></path><path stroke="#000000" stroke-width="1.0" stroke-linejoin="round" stroke-linecap="butt" d="m768.79266 181.00525l0 0c0 -6.714386 5.443054 -12.157486 12.157471 -12.157486l0 0c3.2243652 0 6.3166504 1.2808838 8.596619 3.560852c2.2799683 2.2799683 3.560852 5.3722687 3.560852 8.596634l0 0c0 6.714386 -5.443054 12.157486 -12.157471 12.157486l0 0c-6.7144165 0 -12.157471 -5.4431 -12.157471 -12.157486z" fill-rule="nonzero"></path><path fill="#000000" fill-opacity="0.0" d="m674.7579 99.30315l94.04724 -40.85039" fill-rule="nonzero"></path><path stroke="#000000" stroke-width="1.0" stroke-linejoin="round" stroke-linecap="butt" d="m674.7578 99.30315l88.54401 -38.45999" fill-rule="evenodd"></path><path fill="#000000" stroke="#000000" stroke-width="1.0" stroke-linecap="butt" d="m763.9599 62.358147l3.5043335 -3.3229675l-4.8204346 0.29298782z" fill-rule="evenodd"></path><path fill="#000000" fill-opacity="0.0" d="m674.7579 99.30315l94.04724 0" fill-rule="nonzero"></path><path stroke="#000000" stroke-width="1.0" stroke-linejoin="round" stroke-linecap="butt" d="m674.7578 99.30315l88.0473 0" fill-rule="evenodd"></path><path fill="#000000" stroke="#000000" stroke-width="1.0" stroke-linecap="butt" d="m762.8051 100.95488l4.538086 -1.6517334l-4.538086 -1.6517258z" fill-rule="evenodd"></path><path fill="#000000" fill-opacity="0.0" d="m674.7579 99.30315l94.04724 40.850403" fill-rule="nonzero"></path><path stroke="#000000" stroke-width="1.0" stroke-linejoin="round" stroke-linecap="butt" d="m674.7578 99.30315l88.54401 38.45999" fill-rule="evenodd"></path><path fill="#000000" stroke="#000000" stroke-width="1.0" stroke-linecap="butt" d="m762.6438 139.27814l4.8204346 0.292984l-3.5043335 -3.3229675z" fill-rule="evenodd"></path><path fill="#000000" fill-opacity="0.0" d="m674.7579 99.30315l94.04724 81.70079" fill-rule="nonzero"></path><path stroke="#000000" stroke-width="1.0" stroke-linejoin="round" stroke-linecap="butt" d="m674.7578 99.30315l89.51776 77.7659" fill-rule="evenodd"></path><path fill="#000000" stroke="#000000" stroke-width="1.0" stroke-linecap="butt" d="m763.1924 178.31598l4.509094 1.7292175l-2.3426514 -4.2230835z" fill-rule="evenodd"></path><path fill="#cccccc" d="m867.2231 99.30446l0 0c0 -6.714386 5.443115 -12.157478 12.157471 -12.157478l0 0c3.2243652 0 6.3167114 1.2808762 8.59668 3.5608444c2.2799683 2.2799683 3.560852 5.3722763 3.560852 8.596634l0 0c0 6.7143936 -5.443115 12.157486 -12.157532 12.157486l0 0c-6.7143555 0 -12.157471 -5.4430923 -12.157471 -12.157486z" fill-rule="nonzero"></path><path stroke="#000000" stroke-width="1.0" stroke-linejoin="round" stroke-linecap="butt" d="m867.2231 99.30446l0 0c0 -6.714386 5.443115 -12.157478 12.157471 -12.157478l0 0c3.2243652 0 6.3167114 1.2808762 8.59668 3.5608444c2.2799683 2.2799683 3.560852 5.3722763 3.560852 8.596634l0 0c0 6.7143936 -5.443115 12.157486 -12.157532 12.157486l0 0c-6.7143555 0 -12.157471 -5.4430923 -12.157471 -12.157486z" fill-rule="nonzero"></path><path fill="#cccccc" d="m867.2231 140.15486l0 0c0 -6.7144012 5.443115 -12.157486 12.157471 -12.157486l0 0c3.2243652 0 6.3167114 1.2808685 8.59668 3.5608368c2.2799683 2.2799835 3.560852 5.372284 3.560852 8.596649l0 0c0 6.714386 -5.443115 12.157471 -12.157532 12.157471l0 0c-6.7143555 0 -12.157471 -5.4430847 -12.157471 -12.157471z" fill-rule="nonzero"></path><path stroke="#000000" stroke-width="1.0" stroke-linejoin="round" stroke-linecap="butt" d="m867.2231 140.15486l0 0c0 -6.7144012 5.443115 -12.157486 12.157471 -12.157486l0 0c3.2243652 0 6.3167114 1.2808685 8.59668 3.5608368c2.2799683 2.2799835 3.560852 5.372284 3.560852 8.596649l0 0c0 6.714386 -5.443115 12.157471 -12.157532 12.157471l0 0c-6.7143555 0 -12.157471 -5.4430847 -12.157471 -12.157471z" fill-rule="nonzero"></path><path fill="#cccccc" d="m867.2231 17.603674l0 0c0 -6.7143908 5.443115 -12.15748 12.157471 -12.15748l0 0c3.2243652 0 6.3167114 1.2808738 8.59668 3.560844c2.2799683 2.2799692 3.560852 5.3722725 3.560852 8.596636l0 0c0 6.7143917 -5.443115 12.15748 -12.157532 12.15748l0 0c-6.7143555 0 -12.157471 -5.4430885 -12.157471 -12.15748z" fill-rule="nonzero"></path><path stroke="#000000" stroke-width="1.0" stroke-linejoin="round" stroke-linecap="butt" d="m867.2231 17.603674l0 0c0 -6.7143908 5.443115 -12.15748 12.157471 -12.15748l0 0c3.2243652 0 6.3167114 1.2808738 8.59668 3.560844c2.2799683 2.2799692 3.560852 5.3722725 3.560852 8.596636l0 0c0 6.7143917 -5.443115 12.15748 -12.157532 12.15748l0 0c-6.7143555 0 -12.157471 -5.4430885 -12.157471 -12.15748z" fill-rule="nonzero"></path><path fill="#cccccc" d="m867.2231 58.454067l0 0c0 -6.71439 5.443115 -12.157478 12.157471 -12.157478l0 0c3.2243652 0 6.3167114 1.2808723 8.59668 3.5608444c2.2799683 2.2799683 3.560852 5.3722725 3.560852 8.596634l0 0c0 6.71439 -5.443115 12.157482 -12.157532 12.157482l0 0c-6.7143555 0 -12.157471 -5.4430923 -12.157471 -12.157482z" fill-rule="nonzero"></path><path stroke="#000000" stroke-width="1.0" stroke-linejoin="round" stroke-linecap="butt" d="m867.2231 58.454067l0 0c0 -6.71439 5.443115 -12.157478 12.157471 -12.157478l0 0c3.2243652 0 6.3167114 1.2808723 8.59668 3.5608444c2.2799683 2.2799683 3.560852 5.3722725 3.560852 8.596634l0 0c0 6.71439 -5.443115 12.157482 -12.157532 12.157482l0 0c-6.7143555 0 -12.157471 -5.4430923 -12.157471 -12.157482z" fill-rule="nonzero"></path><path fill="#cccccc" d="m867.2231 181.00525l0 0c0 -6.714386 5.443115 -12.157486 12.157471 -12.157486l0 0c3.2243652 0 6.3167114 1.2808838 8.59668 3.560852c2.2799683 2.2799683 3.560852 5.3722687 3.560852 8.596634l0 0c0 6.714386 -5.443115 12.157486 -12.157532 12.157486l0 0c-6.7143555 0 -12.157471 -5.4431 -12.157471 -12.157486z" fill-rule="nonzero"></path><path stroke="#000000" stroke-width="1.0" stroke-linejoin="round" stroke-linecap="butt" d="m867.2231 181.00525l0 0c0 -6.714386 5.443115 -12.157486 12.157471 -12.157486l0 0c3.2243652 0 6.3167114 1.2808838 8.59668 3.560852c2.2799683 2.2799683 3.560852 5.3722687 3.560852 8.596634l0 0c0 6.714386 -5.443115 12.157486 -12.157532 12.157486l0 0c-6.7143555 0 -12.157471 -5.4431 -12.157471 -12.157486z" fill-rule="nonzero"></path><path fill="#000000" fill-opacity="0.0" d="m793.1076 17.603674l74.11023 0" fill-rule="nonzero"></path><path stroke="#000000" stroke-width="1.0" stroke-linejoin="round" stroke-linecap="butt" d="m793.1076 17.603674l74.11023 0" fill-rule="nonzero"></path><path fill="#000000" fill-opacity="0.0" d="m793.1076 17.603674l74.11023 40.850395" fill-rule="nonzero"></path><path stroke="#000000" stroke-width="1.0" stroke-linejoin="round" stroke-linecap="butt" d="m793.1076 17.603674l74.11023 40.850395" fill-rule="nonzero"></path><path fill="#000000" fill-opacity="0.0" d="m793.1076 17.603674l74.11023 81.70078" fill-rule="nonzero"></path><path stroke="#000000" stroke-width="1.0" stroke-linejoin="round" stroke-linecap="butt" d="m793.1076 17.603674l74.11023 81.70078" fill-rule="nonzero"></path><path fill="#000000" fill-opacity="0.0" d="m793.1076 58.454067l74.11023 -40.850395" fill-rule="nonzero"></path><path stroke="#000000" stroke-width="1.0" stroke-linejoin="round" stroke-linecap="butt" d="m793.1076 58.454067l74.11023 -40.850395" fill-rule="nonzero"></path><path fill="#000000" fill-opacity="0.0" d="m793.1076 58.454067l74.11023 0" fill-rule="nonzero"></path><path stroke="#000000" stroke-width="1.0" stroke-linejoin="round" stroke-linecap="butt" d="m793.1076 58.454067l74.11023 0" fill-rule="nonzero"></path><path fill="#000000" fill-opacity="0.0" d="m793.1076 58.454067l74.11023 122.55118" fill-rule="nonzero"></path><path stroke="#000000" stroke-width="1.0" stroke-linejoin="round" stroke-linecap="butt" d="m793.1076 58.454067l74.11023 122.55118" fill-rule="nonzero"></path><path fill="#000000" fill-opacity="0.0" d="m793.1076 140.15486l74.11023 -81.70079" fill-rule="nonzero"></path><path stroke="#000000" stroke-width="1.0" stroke-linejoin="round" stroke-linecap="butt" d="m793.1076 140.15486l74.11023 -81.70079" fill-rule="nonzero"></path><path fill="#000000" fill-opacity="0.0" d="m793.1076 140.15486l74.11023 -40.850403" fill-rule="nonzero"></path><path stroke="#000000" stroke-width="1.0" stroke-linejoin="round" stroke-linecap="butt" d="m793.1076 140.15486l74.11023 -40.850403" fill-rule="nonzero"></path><path fill="#000000" fill-opacity="0.0" d="m793.1076 140.15486l74.11023 0" fill-rule="nonzero"></path><path stroke="#000000" stroke-width="1.0" stroke-linejoin="round" stroke-linecap="butt" d="m793.1076 140.15486l74.11023 0" fill-rule="nonzero"></path><path fill="#000000" fill-opacity="0.0" d="m793.1076 140.15486l74.11023 40.850388" fill-rule="nonzero"></path><path stroke="#000000" stroke-width="1.0" stroke-linejoin="round" stroke-linecap="butt" d="m793.1076 140.15486l74.11023 40.850388" fill-rule="nonzero"></path><path fill="#000000" fill-opacity="0.0" d="m793.1076 181.00525l74.11023 -40.850388" fill-rule="nonzero"></path><path stroke="#000000" stroke-width="1.0" stroke-linejoin="round" stroke-linecap="butt" d="m793.1076 181.00525l74.11023 -40.850388" fill-rule="nonzero"></path><path fill="#000000" fill-opacity="0.0" d="m793.1076 99.30446l74.11023 0" fill-rule="nonzero"></path><path stroke="#000000" stroke-width="1.0" stroke-linejoin="round" stroke-linecap="butt" d="m793.1076 99.30446l74.11023 0" fill-rule="nonzero"></path><path fill="#000000" fill-opacity="0.0" d="m793.11285 99.30446l74.11023 -40.85039" fill-rule="nonzero"></path><path stroke="#000000" stroke-width="1.0" stroke-linejoin="round" stroke-linecap="butt" d="m793.11285 99.30446l74.11023 -40.85039" fill-rule="nonzero"></path><path fill="#000000" fill-opacity="0.0" d="m793.1076 99.30446l74.11023 40.850403" fill-rule="nonzero"></path><path stroke="#000000" stroke-width="1.0" stroke-linejoin="round" stroke-linecap="butt" d="m793.1076 99.30446l74.11023 40.850403" fill-rule="nonzero"></path><path fill="#000000" fill-opacity="0.0" d="m793.1076 99.30446l74.11023 81.70079" fill-rule="nonzero"></path><path stroke="#000000" stroke-width="1.0" stroke-linejoin="round" stroke-linecap="butt" d="m793.1076 99.30446l74.11023 81.70079" fill-rule="nonzero"></path><path fill="#cccccc" d="m952.2913 99.30446l0 0c0 -6.714386 5.443115 -12.157478 12.157471 -12.157478l0 0c3.2243652 0 6.3167114 1.2808762 8.59668 3.5608444c2.2799683 2.2799683 3.560852 5.3722763 3.560852 8.596634l0 0c0 6.7143936 -5.443115 12.157486 -12.157532 12.157486l0 0c-6.7143555 0 -12.157471 -5.4430923 -12.157471 -12.157486z" fill-rule="nonzero"></path><path stroke="#000000" stroke-width="1.0" stroke-linejoin="round" stroke-linecap="butt" d="m952.2913 99.30446l0 0c0 -6.714386 5.443115 -12.157478 12.157471 -12.157478l0 0c3.2243652 0 6.3167114 1.2808762 8.59668 3.5608444c2.2799683 2.2799683 3.560852 5.3722763 3.560852 8.596634l0 0c0 6.7143936 -5.443115 12.157486 -12.157532 12.157486l0 0c-6.7143555 0 -12.157471 -5.4430923 -12.157471 -12.157486z" fill-rule="nonzero"></path><path fill="#cccccc" d="m952.2913 140.15486l0 0c0 -6.7144012 5.443115 -12.157486 12.157471 -12.157486l0 0c3.2243652 0 6.3167114 1.2808685 8.59668 3.5608368c2.2799683 2.2799835 3.560852 5.372284 3.560852 8.596649l0 0c0 6.714386 -5.443115 12.157471 -12.157532 12.157471l0 0c-6.7143555 0 -12.157471 -5.4430847 -12.157471 -12.157471z" fill-rule="nonzero"></path><path stroke="#000000" stroke-width="1.0" stroke-linejoin="round" stroke-linecap="butt" d="m952.2913 140.15486l0 0c0 -6.7144012 5.443115 -12.157486 12.157471 -12.157486l0 0c3.2243652 0 6.3167114 1.2808685 8.59668 3.5608368c2.2799683 2.2799835 3.560852 5.372284 3.560852 8.596649l0 0c0 6.714386 -5.443115 12.157471 -12.157532 12.157471l0 0c-6.7143555 0 -12.157471 -5.4430847 -12.157471 -12.157471z" fill-rule="nonzero"></path><path fill="#cccccc" d="m952.2913 17.603674l0 0c0 -6.7143908 5.443115 -12.15748 12.157471 -12.15748l0 0c3.2243652 0 6.3167114 1.2808738 8.59668 3.560844c2.2799683 2.2799692 3.560852 5.3722725 3.560852 8.596636l0 0c0 6.7143917 -5.443115 12.15748 -12.157532 12.15748l0 0c-6.7143555 0 -12.157471 -5.4430885 -12.157471 -12.15748z" fill-rule="nonzero"></path><path stroke="#000000" stroke-width="1.0" stroke-linejoin="round" stroke-linecap="butt" d="m952.2913 17.603674l0 0c0 -6.7143908 5.443115 -12.15748 12.157471 -12.15748l0 0c3.2243652 0 6.3167114 1.2808738 8.59668 3.560844c2.2799683 2.2799692 3.560852 5.3722725 3.560852 8.596636l0 0c0 6.7143917 -5.443115 12.15748 -12.157532 12.15748l0 0c-6.7143555 0 -12.157471 -5.4430885 -12.157471 -12.15748z" fill-rule="nonzero"></path><path fill="#cccccc" d="m952.2913 58.454067l0 0c0 -6.71439 5.443115 -12.157478 12.157471 -12.157478l0 0c3.2243652 0 6.3167114 1.2808723 8.59668 3.5608444c2.2799683 2.2799683 3.560852 5.3722725 3.560852 8.596634l0 0c0 6.71439 -5.443115 12.157482 -12.157532 12.157482l0 0c-6.7143555 0 -12.157471 -5.4430923 -12.157471 -12.157482z" fill-rule="nonzero"></path><path stroke="#000000" stroke-width="1.0" stroke-linejoin="round" stroke-linecap="butt" d="m952.2913 58.454067l0 0c0 -6.71439 5.443115 -12.157478 12.157471 -12.157478l0 0c3.2243652 0 6.3167114 1.2808723 8.59668 3.5608444c2.2799683 2.2799683 3.560852 5.3722725 3.560852 8.596634l0 0c0 6.71439 -5.443115 12.157482 -12.157532 12.157482l0 0c-6.7143555 0 -12.157471 -5.4430923 -12.157471 -12.157482z" fill-rule="nonzero"></path><path fill="#cccccc" d="m952.2913 181.00525l0 0c0 -6.714386 5.443115 -12.157486 12.157471 -12.157486l0 0c3.2243652 0 6.3167114 1.2808838 8.59668 3.560852c2.2799683 2.2799683 3.560852 5.3722687 3.560852 8.596634l0 0c0 6.714386 -5.443115 12.157486 -12.157532 12.157486l0 0c-6.7143555 0 -12.157471 -5.4431 -12.157471 -12.157486z" fill-rule="nonzero"></path><path stroke="#000000" stroke-width="1.0" stroke-linejoin="round" stroke-linecap="butt" d="m952.2913 181.00525l0 0c0 -6.714386 5.443115 -12.157486 12.157471 -12.157486l0 0c3.2243652 0 6.3167114 1.2808838 8.59668 3.560852c2.2799683 2.2799683 3.560852 5.3722687 3.560852 8.596634l0 0c0 6.714386 -5.443115 12.157486 -12.157532 12.157486l0 0c-6.7143555 0 -12.157471 -5.4431 -12.157471 -12.157486z" fill-rule="nonzero"></path><path fill="#000000" fill-opacity="0.0" d="m891.5381 17.603674l60.75586 0" fill-rule="nonzero"></path><path stroke="#000000" stroke-width="1.0" stroke-linejoin="round" stroke-linecap="butt" d="m891.5381 17.603674l60.75586 0" fill-rule="nonzero"></path><path fill="#000000" fill-opacity="0.0" d="m891.5381 17.603674l60.75586 40.850395" fill-rule="nonzero"></path><path stroke="#000000" stroke-width="1.0" stroke-linejoin="round" stroke-linecap="butt" d="m891.5381 17.603674l60.75586 40.850395" fill-rule="nonzero"></path><path fill="#000000" fill-opacity="0.0" d="m891.5381 17.603674l60.75586 81.70078" fill-rule="nonzero"></path><path stroke="#000000" stroke-width="1.0" stroke-linejoin="round" stroke-linecap="butt" d="m891.5381 17.603674l60.75586 81.70078" fill-rule="nonzero"></path><path fill="#000000" fill-opacity="0.0" d="m891.5381 17.603674l60.75586 122.551186" fill-rule="nonzero"></path><path stroke="#000000" stroke-width="1.0" stroke-linejoin="round" stroke-linecap="butt" d="m891.5381 17.603674l60.75586 122.551186" fill-rule="nonzero"></path><path fill="#000000" fill-opacity="0.0" d="m891.5381 17.603674l60.75586 163.40158" fill-rule="nonzero"></path><path stroke="#000000" stroke-width="1.0" stroke-linejoin="round" stroke-linecap="butt" d="m891.5381 17.603674l60.75586 163.40158" fill-rule="nonzero"></path><path fill="#000000" fill-opacity="0.0" d="m891.5381 58.454067l60.75586 -40.850395" fill-rule="nonzero"></path><path stroke="#000000" stroke-width="1.0" stroke-linejoin="round" stroke-linecap="butt" d="m891.5381 58.454067l60.75586 -40.850395" fill-rule="nonzero"></path><path fill="#000000" fill-opacity="0.0" d="m891.5381 58.454067l60.75586 0" fill-rule="nonzero"></path><path stroke="#000000" stroke-width="1.0" stroke-linejoin="round" stroke-linecap="butt" d="m891.5381 58.454067l60.75586 0" fill-rule="nonzero"></path><path fill="#000000" fill-opacity="0.0" d="m891.5381 58.454067l60.75586 40.85039" fill-rule="nonzero"></path><path stroke="#000000" stroke-width="1.0" stroke-linejoin="round" stroke-linecap="butt" d="m891.5381 58.454067l60.75586 40.85039" fill-rule="nonzero"></path><path fill="#000000" fill-opacity="0.0" d="m891.5381 58.454067l60.75586 81.70079" fill-rule="nonzero"></path><path stroke="#000000" stroke-width="1.0" stroke-linejoin="round" stroke-linecap="butt" d="m891.5381 58.454067l60.75586 81.70079" fill-rule="nonzero"></path><path fill="#000000" fill-opacity="0.0" d="m891.5381 58.454067l60.75586 122.55118" fill-rule="nonzero"></path><path stroke="#000000" stroke-width="1.0" stroke-linejoin="round" stroke-linecap="butt" d="m891.5381 58.454067l60.75586 122.55118" fill-rule="nonzero"></path><path fill="#000000" fill-opacity="0.0" d="m891.5381 99.30446l60.75586 0" fill-rule="nonzero"></path><path stroke="#000000" stroke-width="1.0" stroke-linejoin="round" stroke-linecap="butt" d="m891.5381 99.30446l60.75586 0" fill-rule="nonzero"></path><path fill="#000000" fill-opacity="0.0" d="m891.5381 99.30446l60.75586 40.850403" fill-rule="nonzero"></path><path stroke="#000000" stroke-width="1.0" stroke-linejoin="round" stroke-linecap="butt" d="m891.5381 99.30446l60.75586 40.850403" fill-rule="nonzero"></path><path fill="#000000" fill-opacity="0.0" d="m891.5381 99.30446l60.75586 -40.85039" fill-rule="nonzero"></path><path stroke="#000000" stroke-width="1.0" stroke-linejoin="round" stroke-linecap="butt" d="m891.5381 99.30446l60.75586 -40.85039" fill-rule="nonzero"></path><path fill="#000000" fill-opacity="0.0" d="m891.5381 99.30446l60.75586 -81.70078" fill-rule="nonzero"></path><path stroke="#000000" stroke-width="1.0" stroke-linejoin="round" stroke-linecap="butt" d="m891.5381 99.30446l60.75586 -81.70078" fill-rule="nonzero"></path><path fill="#000000" fill-opacity="0.0" d="m891.5381 99.30446l60.75586 81.70079" fill-rule="nonzero"></path><path stroke="#000000" stroke-width="1.0" stroke-linejoin="round" stroke-linecap="butt" d="m891.5381 99.30446l60.75586 81.70079" fill-rule="nonzero"></path><path fill="#000000" fill-opacity="0.0" d="m891.5381 140.15486l60.75586 -122.551186" fill-rule="nonzero"></path><path stroke="#000000" stroke-width="1.0" stroke-linejoin="round" stroke-linecap="butt" d="m891.5381 140.15486l60.75586 -122.551186" fill-rule="nonzero"></path><path fill="#000000" fill-opacity="0.0" d="m891.5381 140.15486l60.75586 -81.70079" fill-rule="nonzero"></path><path stroke="#000000" stroke-width="1.0" stroke-linejoin="round" stroke-linecap="butt" d="m891.5381 140.15486l60.75586 -81.70079" fill-rule="nonzero"></path><path fill="#000000" fill-opacity="0.0" d="m891.5381 140.15486l60.75586 -40.850403" fill-rule="nonzero"></path><path stroke="#000000" stroke-width="1.0" stroke-linejoin="round" stroke-linecap="butt" d="m891.5381 140.15486l60.75586 -40.850403" fill-rule="nonzero"></path><path fill="#000000" fill-opacity="0.0" d="m891.5381 140.15486l60.75586 0" fill-rule="nonzero"></path><path stroke="#000000" stroke-width="1.0" stroke-linejoin="round" stroke-linecap="butt" d="m891.5381 140.15486l60.75586 0" fill-rule="nonzero"></path><path fill="#000000" fill-opacity="0.0" d="m891.5381 140.15486l60.75586 40.850388" fill-rule="nonzero"></path><path stroke="#000000" stroke-width="1.0" stroke-linejoin="round" stroke-linecap="butt" d="m891.5381 140.15486l60.75586 40.850388" fill-rule="nonzero"></path><path fill="#000000" fill-opacity="0.0" d="m891.5381 181.00525l60.75586 -163.40158" fill-rule="nonzero"></path><path stroke="#000000" stroke-width="1.0" stroke-linejoin="round" stroke-linecap="butt" d="m891.5381 181.00525l60.75586 -163.40158" fill-rule="nonzero"></path><path fill="#000000" fill-opacity="0.0" d="m891.5381 181.00525l60.75586 -122.55118" fill-rule="nonzero"></path><path stroke="#000000" stroke-width="1.0" stroke-linejoin="round" stroke-linecap="butt" d="m891.5381 181.00525l60.75586 -122.55118" fill-rule="nonzero"></path><path fill="#000000" fill-opacity="0.0" d="m891.5381 181.00525l60.75586 -81.70079" fill-rule="nonzero"></path><path stroke="#000000" stroke-width="1.0" stroke-linejoin="round" stroke-linecap="butt" d="m891.5381 181.00525l60.75586 -81.70079" fill-rule="nonzero"></path><path fill="#000000" fill-opacity="0.0" d="m891.5381 181.00525l60.75586 -40.850388" fill-rule="nonzero"></path><path stroke="#000000" stroke-width="1.0" stroke-linejoin="round" stroke-linecap="butt" d="m891.5381 181.00525l60.75586 -40.850388" fill-rule="nonzero"></path><path fill="#000000" fill-opacity="0.0" d="m891.5381 181.00525l60.75586 0" fill-rule="nonzero"></path><path stroke="#000000" stroke-width="1.0" stroke-linejoin="round" stroke-linecap="butt" d="m891.5381 181.00525l60.75586 0" fill-rule="nonzero"></path><path fill="#000000" fill-opacity="0.0" d="m985.26245 5.446194l0 0c9.497559 0 17.196838 5.5146947 17.196838 12.317417l0 69.223434c0 6.802719 7.699341 12.317413 17.1969 12.317413l0 0c-9.497559 0 -17.1969 5.514702 -17.1969 12.317421l0 69.22343c0 6.8027344 -7.69928 12.317429 -17.196838 12.317429z" fill-rule="nonzero"></path><path fill="#000000" fill-opacity="0.0" d="m985.26245 5.446194l0 0c9.497559 0 17.196838 5.5146947 17.196838 12.317417l0 69.223434c0 6.802719 7.699341 12.317413 17.1969 12.317413l0 0c-9.497559 0 -17.1969 5.514702 -17.1969 12.317421l0 69.22343c0 6.8027344 -7.69928 12.317429 -17.196838 12.317429" fill-rule="nonzero"></path><path stroke="#000000" stroke-width="1.0" stroke-linejoin="round" stroke-linecap="butt" d="m985.26245 5.446194l0 0c9.497559 0 17.196838 5.5146947 17.196838 12.317417l0 69.223434c0 6.802719 7.699341 12.317413 17.1969 12.317413l0 0c-9.497559 0 -17.1969 5.514702 -17.1969 12.317421l0 69.22343c0 6.8027344 -7.69928 12.317429 -17.196838 12.317429" fill-rule="nonzero"></path><path fill="#000000" fill-opacity="0.0" d="m1012.18896 84.396324l60.75586 0l0 24.314964l-60.75586 0z" fill-rule="nonzero"></path><path fill="#000000" d="m1034.5825 96.74255l0 -3.203125q1.65625 -1.875 4.34375 -1.875q0.9375 0 1.953125 0.265625q1.03125 0.265625 2.953125 1.09375q1.078125 0.46875 1.609375 0.609375q0.546875 0.125 1.09375 0.125q1.015625 0 2.09375 -0.609375q1.09375 -0.609375 1.9375 -1.53125l0 3.3125q-1.0 0.9375 -2.03125 1.359375q-1.015625 0.421875 -2.296875 0.421875q-0.9375 0 -1.78125 -0.203125q-0.84375 -0.21875 -2.703125 -1.046875q-1.859375 -0.84375 -3.09375 -0.84375q-1.0 0 -1.890625 0.4375q-0.875 0.421875 -2.1875 1.6875zm0 5.65625l0 -3.203125q1.65625 -1.875 4.34375 -1.875q0.9375 0 1.953125 0.265625q1.03125 0.265625 2.953125 1.09375q1.078125 0.453125 1.609375 0.59375q0.546875 0.140625 1.09375 0.140625q1.015625 0 2.09375 -0.609375q1.09375 -0.609375 1.9375 -1.53125l0 3.3125q-1.0 0.9375 -2.03125 1.359375q-1.015625 0.421875 -2.296875 0.421875q-0.9375 0 -1.78125 -0.21875q-0.84375 -0.21875 -2.703125 -1.046875q-1.859375 -0.828125 -3.09375 -0.828125q-1.0 0 -1.890625 0.4375q-0.875 0.421875 -2.1875 1.6875z" fill-rule="nonzero"></path></g></svg>

